<svg xmlns="http://www.w3.org/2000/svg" xmlns:xlink="http://www.w3.org/1999/xlink" viewBox="0,0,256,256" width="50px" height="50px" fill-rule="nonzero"><g fill="#ffffff" fill-rule="nonzero" stroke="none" stroke-width="1" stroke-linecap="butt" stroke-linejoin="miter" stroke-miterlimit="10" stroke-dasharray="" stroke-dashoffset="0" font-family="none" font-weight="none" font-size="none" text-anchor="none" style="mix-blend-mode: normal"><g transform="scale(5.12,5.12)"><path d="M25,2c-12.68359,0 -23,10.31641 -23,23c0,12.68359 10.31641,23 23,23c12.68359,0 23,-10.31641 23,-23c0,-12.68359 -10.31641,-23 -23,-23zM37,26h-21.58594l6.29297,6.29297c0.39063,0.39063 0.39063,1.02344 0,1.41406c-0.19531,0.19531 -0.44922,0.29297 -0.70703,0.29297c-0.25781,0 -0.51172,-0.09766 -0.70703,-0.29297l-8,-8c-0.09375,-0.09375 -0.16406,-0.20312 -0.21484,-0.32422c-0.10156,-0.24609 -0.10156,-0.51953 0,-0.76562c0.05078,-0.12109 0.12109,-0.23047 0.21484,-0.32422l8,-8c0.39063,-0.39062 1.02344,-0.39062 1.41406,0c0.39063,0.39063 0.39063,1.02344 0,1.41406l-6.29297,6.29297h21.58594c0.55469,0 1,0.44922 1,1c0,0.55078 -0.44531,1 -1,1z"></path></g></g></svg>