<svg xmlns="http://www.w3.org/2000/svg" xmlns:xlink="http://www.w3.org/1999/xlink" viewBox="0,0,256,256" width="50px" height="50px" fill-rule="nonzero"><g fill="#ffffff" fill-rule="nonzero" stroke="none" stroke-width="1" stroke-linecap="butt" stroke-linejoin="miter" stroke-miterlimit="10" stroke-dasharray="" stroke-dashoffset="0" font-family="none" font-weight="none" font-size="none" text-anchor="none" style="mix-blend-mode: normal"><g transform="scale(5.12,5.12)"><path d="M25,2c-12.68359,0 -23,10.31641 -23,23c0,12.68359 10.31641,23 23,23c12.68359,0 23,-10.31641 23,-23c0,-12.68359 -10.31641,-23 -23,-23zM37.70703,25.70703l-8,8c-0.19531,0.19531 -0.44922,0.29297 -0.70703,0.29297c-0.25781,0 -0.51172,-0.09766 -0.70703,-0.29297c-0.39062,-0.39062 -0.39062,-1.02344 0,-1.41406l6.29297,-6.29297h-21.58594c-0.55078,0 -1,-0.44922 -1,-1c0,-0.55078 0.44922,-1 1,-1h21.58594l-6.29297,-6.29297c-0.39062,-0.39062 -0.39062,-1.02344 0,-1.41406c0.39063,-0.39062 1.02344,-0.39062 1.41406,0l8,8c0.09375,0.08984 0.16406,0.20313 0.21484,0.32422c0.10156,0.24609 0.10156,0.51953 0,0.76563c-0.05078,0.12109 -0.12109,0.23047 -0.21484,0.32422z"></path></g></g></svg>